<?xml version="1.0" encoding="UTF-8"?>
<svg id="Layer_1" data-name="Layer 1" xmlns="http://www.w3.org/2000/svg" viewBox="0 0 1430.41 404.42">
  <defs>
    <style>
      .cls-1 {
        fill: #7c3edd;
      }
    </style>
  </defs>
  <ellipse class="cls-1" cx="1387.22" cy="40.52" rx="43.19" ry="40.52"/>
  <path class="cls-1" d="M407.14,213.46v190.97h-66.62v-190.97c0-70.95-61.31-128.48-136.96-128.48s-136.95,57.52-136.95,128.48v190.97H0v-190.97c0-55.99,25.69-106.36,66.62-141.29,36.16-30.86,84.22-49.68,136.95-49.68s100.79,18.81,136.96,49.68c40.92,34.93,66.62,85.3,66.62,141.29Z"/>
  <path class="cls-1" d="M814.64,72.18c-36.15-30.87-84.21-49.68-136.95-49.68-112.42,0-203.56,85.5-203.56,190.96s91.14,190.96,203.56,190.96c52.74,0,100.8-18.81,136.95-49.68v49.68h66.61v-190.96c0-55.99-25.69-106.35-66.61-141.28ZM677.69,341.93c-75.64,0-136.95-57.52-136.95-128.47s61.31-128.47,136.95-128.47,136.95,57.52,136.95,128.47-61.31,128.47-136.95,128.47Z"/>
  <path class="cls-1" d="M1200.19,40.52c-15.88,51.45-33.72,104.73-53.78,159.5-6.98,19.05-14.04,37.78-21.17,56.19-3.12,9.08-7.66,21.32-13.97,35.45,0,.01-.01.04-.03.05-8.18,18.3-11.32,21.83-14.57,21.84-3.18,0-6.36-3.39-14.64-21.83,0-.02-.02-.04-.03-.06-6.35-14.13-10.88-26.38-13.97-35.45-7.13-18.41-14.2-37.14-21.17-56.19-20.06-54.77-37.9-108.05-53.78-159.5-23.73,0-47.47,0-71.2,0,5.61,16.44,11.23,32.87,16.84,49.31l13.96,40.86c5.85,17.13,11.71,34.27,17.56,51.4,13.34,39.05,20.01,58.57,20.03,58.64,8.77,26,18.29,51.76,26.61,77.89,0,0,9.52,29.89,23.05,51.79,2.8,4.53,9.94,15.37,22.3,23.49,1.58,1.04,3.16,1.98,4.73,2.83,10.91,5.92,21.24,7.35,27.65,7.7h4.11c6.4-.35,16.7-1.77,27.59-7.66,1.59-.86,3.18-1.81,4.79-2.86,12.36-8.12,19.45-18.92,22.3-23.49,13.92-22.28,21.73-45.4,21.73-45.4,10.97-32.44,22.15-64.81,33.21-97.22,0,0,7.68-22.49,14.17-41.47,2.49-7.29,4.98-14.59,7.47-21.88,6.1-17.87,12.21-35.74,18.31-53.6,8.01-23.44,16.01-46.88,24.02-70.32h-72.14ZM1096.64,327.52s.03-.06.03-.09v.18s-.03-.06-.03-.09Z"/>
  <path class="cls-1" d="M1423.07,123.1v281.32h-71.69v-15.66c0-6.87,0-13.73,0-20.6,0-4.23,0-8.45,0-12.68,0-4.49,0-8.99,0-13.48v-22.17c0-5.02,0-10.03,0-15.05v-41.99c0-3.98,0-7.97,0-11.95v-11.02c0-4.5,0-9.01,0-13.51,0-3.68,0-7.37,0-11.05v-19.81c0-3.17,0-6.34,0-9.51,0-6.07,0-12.15,0-18.22,0-.94,0-4.9,0-5.32,0-3.94,0-3.91,0-3.95.28-4.88,3.8-10.4,8.91-12.93.26-.13.02,0,3.07-1.22,4.52-1.81,7.72-3.16,8.11-3.32,5.08-2.06,24.9-8.96,51.6-17.9Z"/>
</svg>